<svg width="20" height="20" viewBox="0 0 20 20" fill="none" xmlns="http://www.w3.org/2000/svg">
<path d="M15.1655 4.16596C15.4421 3.88934 15.8906 3.88934 16.1673 4.16596C16.4436 4.44252 16.4436 4.89037 16.1673 5.16694L11.0004 10.333L16.1673 15.499C16.4438 15.7756 16.4439 16.2242 16.1673 16.5008C15.8907 16.7774 15.4421 16.7773 15.1655 16.5008L9.99946 11.3339L4.83344 16.5008C4.55688 16.7771 4.10902 16.7771 3.83247 16.5008C3.55584 16.2241 3.55584 15.7756 3.83247 15.499L8.99767 10.333L3.83247 5.16694C3.55584 4.89032 3.55584 4.44258 3.83247 4.16596C4.10909 3.88934 4.55682 3.88934 4.83344 4.16596L9.99946 9.33116L15.1655 4.16596Z" fill="#030B1A"/>
</svg>
