<svg xmlns="http://www.w3.org/2000/svg" width="20" height="20" viewBox="0 0 20 20" fill="none">
  <path fill-rule="evenodd" clip-rule="evenodd" d="M1.30078 9.9998C1.30078 5.19495 5.19592 1.2998 10.0008 1.2998C14.8056 1.2998 18.7008 5.19495 18.7008 9.9998C18.7008 14.8047 14.8056 18.6998 10.0008 18.6998C5.19592 18.6998 1.30078 14.8047 1.30078 9.9998ZM10.0008 2.6998C5.96912 2.6998 2.70078 5.96815 2.70078 9.9998C2.70078 14.0315 5.96912 17.2998 10.0008 17.2998C14.0324 17.2998 17.3008 14.0315 17.3008 9.9998C17.3008 5.96815 14.0324 2.6998 10.0008 2.6998Z" fill="#1F1F1F"/>
  <path d="M13.0189 9.8211C13.1499 9.90445 13.1499 10.0957 13.0189 10.179L8.62617 12.9744C8.48496 13.0643 8.30017 12.9628 8.30017 12.7955L8.30017 7.20465C8.30017 7.03727 8.48496 6.93583 8.62617 7.02569L13.0189 9.8211Z" fill="#1F1F1F"/>
  <path fill-rule="evenodd" clip-rule="evenodd" d="M13.4173 9.19472C14.0067 9.56981 14.0067 10.4303 13.4173 10.8053L9.02453 13.6007C8.38906 14.0051 7.55751 13.5487 7.55751 12.7954L7.55751 7.20463C7.55751 6.45141 8.38906 5.99493 9.02453 6.39932L13.4173 9.19472ZM11.9171 10L9.04236 8.17067L9.04236 11.8294L11.9171 10Z" fill="#1F1F1F"/>
</svg>